<?xml version="1.0" encoding="UTF-8"?>
<svg id="Layer_1" data-name="Layer 1" xmlns="http://www.w3.org/2000/svg" viewBox="0 0 737.19 182.24">
  <defs>
    <style>
      .cls-1 {
        fill: #040404;
      }

      .cls-2 {
        fill: #020202;
      }

      .cls-3 {
        fill: #313131;
      }

      .cls-4 {
        fill: #030303;
      }

      .cls-5 {
        fill: #0d0d0d;
      }

      .cls-6 {
        fill: #050505;
      }

      .cls-7 {
        fill: #474747;
      }

      .cls-8 {
        fill: #141414;
      }

      .cls-9 {
        fill: #535353;
      }

      .cls-10 {
        fill: #1e1e1e;
      }

      .cls-11 {
        fill: #010101;
      }
    </style>
  </defs>
  <path d="m363.29,15.58c1.61-.06,3.59-.61,2.99,2.26-.19.09-.38.18-.57.27.19.17.38.34.57.52.56,1.28,1.11,2.56,1.67,3.84.33.5.56,1.16,1.02,1.46,5.1,3.32,10.13,6.77,15.39,9.82,5.1,2.96,10.5,5.39,15.64,8.29,4.29,2.42,8.3,5.36,12.6,7.76,6.93,3.86,14.08,7.33,21.01,11.2,8.98,5.02,17.9,10.16,25.18,17.63.19.21.38.43.58.64,1.99,3.4,3.98,6.8,5.98,10.19.57.76,1.14,1.52,1.71,2.28.56,3.57,1.12,7.15,1.68,10.72.2,1.03.39,2.07.59,3.1,0,1.53,0,3.05.01,4.58-.2.78-.4,1.55-.59,2.33-.04,6.61-1.66,12.78-5.12,18.44-2.23,3.64-4.56,7.22-6.64,10.93-1.2,2.14-2.01,4.5-3,6.76,0,0,0,0,0,0-1.26-.14-2.52-.27-4.27-.46,2.33-4.93-1-7.88-4.31-9.99-9-5.75-18.28-11.08-27.56-16.39-4.8-2.75-9.89-4.99-14.76-7.65-4.12-2.25-8.09-4.75-12.12-7.15-1.3-.69-2.59-1.38-3.89-2.07-.94-.77-1.83-1.61-2.82-2.31-5.61-4.03-12.73-5.42-17.92-10.21-.26-.26-.51-.51-.77-.77-5.29-3.81-9.67-8.4-12.38-14.42-.71-.55-1.41-1.1-2.12-1.65-.1-.26-.19-.51-.29-.77-1.25-5.12-2.5-10.25-3.75-15.37-.2-.52-.4-1.04-.6-1.56-.08-.26-.17-.51-.25-.77.08-1.03.17-2.05.25-3.08,2.47-1.24,1.54-2.93.62-4.63.48-2.82.96-5.64,1.44-8.46.32-1.53.64-3.06.96-4.59,1-1.8,2.01-3.6,3.01-5.41.21-.51.42-1.03.64-1.54,3.4-4.6,6.81-9.2,10.21-13.81Z"/>
  <path d="m253.34,39.4c-.03,22.87-.05,45.74-.1,68.61-.03,14.31-.09,28.62-.14,42.93l-1.31,1c.45.44.89.89,1.34,1.33.07.51.14,1.02.21,1.53.21.27.42.55.63.82.61.95,1.05,2.48,1.87,2.72,2.11.62,4.4.67,6.61.94,3.59-.01,7.18-.03,10.77-.04,3.36,1.12,3.18,2.81.77,4.85-21.03,0-42.05-.01-63.08-.02-1.44-.19-2.88-.37-4.42-.57.36-1.5.63-2.62.93-3.84,1.48-.13,2.87-.26,4.26-.38,3.34-.18,6.69-.37,10.03-.55,2.88.03,5.97.37,6.04-3.93,2.34-.77,1.88-2.25.96-3.84-.04-.52-.07-1.04-.11-1.55.07-2.42.19-4.84.19-7.26,0-33.36,0-66.73-.01-100.09,0-1.91-.13-3.82-.2-5.73-.28-4.51,0-9.16-1.03-13.5-.69-2.91-3.19-5.41-5.01-8.01-.62-.88-1.63-1.48-2.46-2.21,1.1-.55,2.21-1.56,3.31-1.57,12.74-.08,25.49,0,38.24.04,0,.93,0,1.87,0,2.8-1.26,1.07-2.53,2.15-3.79,3.22-.56.49-1.12.99-1.67,1.48-2.57,6.72-3.93,13.6-2.82,20.82Z"/>
  <path class="cls-2" d="m19.88,56.23c-3.44,13.39-4.23,26.99-3.35,40.74.07,1.06-.08,2.14-.13,3.2.22,1.28.45,2.56.67,3.84.04.77.07,1.54.11,2.31.21.52.41,1.03.62,1.55.05,1.02.09,2.05.14,3.07.22.51.43,1.03.65,1.54.05,1.02.09,2.05.14,3.07.46.79.92,1.58,1.38,2.37,2.67,6.09,5.33,12.18,8,18.27.24.56.5,1.11.76,1.66.68.5,1.36,1,2.05,1.5,3.28,3.36,6.55,6.72,9.85,10.06,1.05,1.06,2.19,2.03,3.28,3.04-1.05.54-2.11,1.07-3.16,1.61-1.66-1.04-3.43-1.93-4.95-3.14-3.36-2.67-6.85-5.25-9.82-8.32-7.22-7.47-13.98-15.35-17.76-25.27-.6-1.57-.97-3.24-1.44-4.86-.21-.26-.41-.52-.62-.79-.49-1.28-.99-2.56-1.48-3.85-.53-1.03-1.06-2.06-1.59-3.09,0-.5,0-.99-.01-1.49l.55-.51c-.19-.08-.37-.16-.56-.24-.04-.52-.09-1.04-.13-1.56-.46-.79-.92-1.58-1.37-2.38C1.13,93.98.56,89.38,0,84.79c0-3.08,0-6.15,0-9.23,1.33-6.92,2.67-13.84,4-20.76.27-.51.54-1.02.81-1.52,3.14-10.25,8.53-19.44,15.39-27.39,7.59-8.8,16.67-16.02,27.82-20.52C54.32,2.81,60.59.87,67.29.24c1.17-.11,2.41.44,3.61.68.01.56.03,1.12.04,1.67-4.29,1.18-8.6,2.3-12.88,3.54-6.36,1.85-11.69,5.48-16.4,10-7.69,7.37-13.44,16.09-17.11,26.1-1.41,3.86-2.47,7.84-3.69,11.77-.33.74-.66,1.48-.99,2.22Z"/>
  <path d="m115.39,152.69c-.1-2.79-.28-5.57-.28-8.36-.03-19.36-.1-38.72.05-58.07.02-3.1-.86-4-3.89-3.85-5.5.27-11.01.17-16.52.22-.51-.11-1.02-.22-1.53-.33-.22-.2-.43-.4-.65-.61-.53-2.16.34-3.06,2.53-3.05,18.34.1,36.68.16,55.01.23,0,.9-.01,1.8-.02,2.7-2.55.85-5.1,1.69-7.66,2.54-2.92,1.08-2.74,3.63-2.74,6-.03,13.29.14,26.58-.13,39.86-.05,2.53-1.09,5.65-2.79,7.42-5.48,5.71-10.77,11.78-18.19,15.22-1.07.02-2.13.04-3.2.06Z"/>
  <path class="cls-2" d="m690.91,153.26c-.01-2.56-.02-5.13-.03-7.69,0-5.64,0-11.28,0-16.93,0-1.28,0-2.56,0-3.85v-3.85c0-1.89,0-3.77,0-5.9h6.72c.12.98.27,2.17.48,3.82,9.89-6.63,20.28-8.37,30.56-1.9,6.22,3.92,7.44,11.03,8.55,17.82,0,2.31,0,4.62,0,6.93-1.26,8.29-3.68,15.97-11.35,20.72-1,.62-2.26.83-3.42,1.16-7.42,2.06-14.72,1.76-21.83-1.32-.54-.23-.91-.85-1.36-1.29-.31-.62-.61-1.24-.92-1.86-.16.06-.31.12-.47.18.07.56.13,1.13.2,1.69v21.25h-6.79c-.12-1.43-.24-2.9-.37-4.37,0-3.08,0-6.15,0-9.23,0-3.85.01-7.69.02-11.54,0-1.28,0-2.56,0-3.85Zm6.05-13c1.24,4.03,1.57,9.64,4.42,13.26,4.3,5.45,11.13,6.55,17.9,4.33,5.04-1.66,7.85-5.85,9.45-10.55,2.64-7.74,2.21-15.26-2.72-22.24-3.46-4.9-8.33-5.09-13.58-4.92-6.59.21-11.27,3.34-13.14,9.52-.93,3.07-1.4,6.28-2.34,10.61Z"/>
  <path class="cls-1" d="m412.4,38.72c.78.42,1.57.85,2.35,1.27,5.06,2.95,10.13,5.88,15.18,8.85,3.31,1.95,6.59,3.96,9.91,5.9,8.78,5.11,18.29,9.14,25.55,16.53,3.16,3.22,5.83,6.94,8.71,10.43.48.75.96,1.51,1.44,2.26.81,3.86,1.62,7.72,2.42,11.58.23,1.02.47,2.04.7,3.07.03,2.84.07,5.69.1,8.53-.27,1.78-.54,3.56-.8,5.34-.05,1.51-.11,3.03-.16,4.54-.21.28-.41.55-.62.83-.31,2.04-.61,4.07-.92,6.11-.2.27-.4.54-.6.81-.26.58-.52,1.15-.78,1.73-.51.97-1.02,1.94-1.53,2.91-.26,1.02-.52,2.05-.78,3.07-.1.22-.16.45-.17.69-2.98,4.28-5.97,8.54-8.93,12.83-.92,1.33-1.74,2.72-2.61,4.09-2.05,1.79-4.1,3.59-6.15,5.38-1.79,1.37-3.58,2.75-5.36,4.12-.28.18-.56.36-.84.55-.74.33-1.49.65-2.23.98-.3.2-.6.4-.9.6-3.27,1.29-6.53,2.58-9.8,3.87-.52-.27-1.04-.53-1.56-.8.49-.78.98-1.55,1.47-2.33,4.99-2.81,10.15-5.36,14.86-8.57,1.54-1.05,4.61-2.07,3.6-5.29,0,0,0,0,0,0,.56.08,1.46.41,1.62.19,4.38-5.77,9.23-11.28,12.8-17.52,2.4-4.19,2.9-9.46,4.39-14.2,2.47-7.85,2.21-15.63.48-23.62-1.77-8.16-5.7-14.95-11.99-20.11-4.07-3.34-8.97-5.69-13.59-8.35-10.07-5.79-20.2-11.46-30.27-17.23-12.79-7.33-25.57-14.69-38.32-22.08-6.68-3.87-7.42-7.68-2.82-13.57.21-.27.15-.74.21-1.12,3.03-1.79,6.05-3.58,9.08-5.37,4.89-.88,9.24-4.34,14.58-3.05,0,.69,0,1.38,0,2.08-2.31.59-4.62,1.19-6.92,1.78-.27.21-.55.41-.82.62-2.8,1.33-5.61,2.66-8.41,3.99-.28.2-.57.41-.85.61-1.8,1.4-3.82,2.6-5.29,4.28-.62.71-.63,3.09-.02,3.57,2.82,2.21,5.87,4.19,9.01,5.93,4,2.22,8.19,4.08,12.25,6.18,4.47,2.31,8.89,4.72,13.33,7.09Z"/>
  <path class="cls-11" d="m613.4,163.25c-.06-8.87-.11-17.73-.18-26.6-.01-1.39-.12-2.78-.19-4.16-1.2-10.84-12.75-16.53-21.29-10.44-4.89,3.49-6,8.73-6.28,14.29v27.5c-2.33.14-3.83.24-5.33.33-.74-.71-1.95-1.33-2.11-2.16-.36-1.83-.19-3.77-.24-5.66,0-7.95,0-15.9-.01-23.85,0-.51,0-1.03,0-1.54,0-1.8,0-3.59,0-5.39,0-5.13.01-10.26.02-15.39,0-3.59,0-7.18,0-10.77,0-.77,0-1.54,0-2.31,0-.51,0-1.03-.01-1.54.39-1.23.68-3.47,1.18-3.51,2.2-.21,4.84-1.61,6.52,1.21v25.44c4.04-2.73,8.06-5.27,13.11-4.8,1.54,0,3.08,0,4.62,0,11.95-.22,17.02,7.03,17.02,17.85,0,9.48.12,18.96.19,28.43-.08,2.21-.3,4.29-3.36,3.98-1.02-.09-2.05-.18-3.07-.27-.19-.21-.39-.42-.58-.64Zm-28.05-43.49c-.06-.09-.12-.17-.18-.26-.07.08-.2.15-.2.23,0,.08.11.17.17.26.07-.08.14-.15.22-.23Z"/>
  <path class="cls-1" d="m676.28,123.28c1.07,4.09,2.15,8.19,3.22,12.28v6.16c1.49,4.97-1.88,8.74-3.24,13-.53.53-1.05,1.06-1.58,1.59-5.03,5.7-11.07,9.16-18.91,9.3-10.15.18-20.99-6.86-23.49-18.66-1.2-5.66-.44-11.11-.47-16.65,0-1.32,1.36-2.61,1.89-3.99.62-1.59,1.03-3.27,1.57-5.05,5.35-2.76,10.03-7.98,17.17-7.37,2.05,0,4.1,0,6.15,0,6.65,0,12.32,2.01,16.14,7.83.51.52,1.03,1.04,1.54,1.56Zm-37.76,16.56c-.47,3.83,1.66,7.68,4.17,11.86,4.31,7.18,15.66,8.85,22.19,4.29,5.74-4,7.2-9.68,7.48-15.9.14-3.04-.66-6.18-1.34-9.2-2.06-9.13-15.72-14.6-23.5-9.35-6.01,4.06-9.15,9.8-9,18.3Z"/>
  <path class="cls-1" d="m537.29,127.87c1.74,5.1,6.3,5.26,10.53,5.98,1.88.57,3.76,1.11,5.63,1.71,6.34,2.01,13.04,3.58,14.15,11.87.63,4.73.31,9.64-3.64,12.44-3.53,2.49-8.15,3.43-12.29,5.06-2.05,0-4.1,0-6.15,0-6.12-.18-11.23-2.62-15.49-6.96-.5-.8-1-1.6-1.49-2.4-.24-1.03-.47-2.05-.71-3.08.02-1.02.04-2.04.06-3.05,2.69.22,5.88-1.19,7.58,2.3.52.53,1.04,1.06,1.56,1.6.67.84,1.31,1.71,2.02,2.52,3.49,3.91,8.17,2.7,12.49,2.75,4.31.05,8.02-3.2,8.65-6.9.79-4.7-2.46-7.78-6.31-9.08-3.39-1.14-6.97-1.82-10.52-2.41-8.14-1.35-12.66-5.45-14.12-13.12,0-.77,0-1.54,0-2.31.14-1.64.28-3.27.41-4.8.73-.57,1.48-1.3,2.35-1.82,1.97-1.18,3.91-2.98,6.02-3.24,5.37-.68,10.86-1.06,16.26-.81,5.54.26,11.79,6.21,12.14,10.67-.06,1.14-.13,2.28-.2,3.56-3.8.79-7.14.77-8.56-3.93-.25-.82-1.38-1.37-2.11-2.04-2.72-3.38-10.44-4.26-14.87-1.69-2.77,1.61-4.26,3.84-3.4,7.17Z"/>
  <path class="cls-4" d="m387.75,167.14c-5.25-2.09-10.48-4.26-15.77-6.26-6.93-2.62-10.71-9.08-16.39-13.22-.21-.21-.43-.43-.64-.64-.38-.92-.5-2.11-1.17-2.72-6.69-6.06-8.82-13.69-8.33-22.46.43-7.67,5.11-13.19,10.83-14.11,2.81.34,5.61.68,8.42,1.02,1.48,1.27,2.97,2.54,4.45,3.81.33.74.66,1.48.99,2.22.04.51.08,1.03.12,1.54,0,1.28,0,2.57,0,3.85-.06.25-.11.5-.17.76-.27.51-.54,1.02-.81,1.52-.76,1.01-1.52,2.01-2.28,3.02-.26.26-.51.51-.77.77-1.75,1.14-3.88,1.96-5.18,3.48-2.1,2.47-3.65,5.4-5.43,8.14,1.49,2.59,2.97,5.19,4.46,7.78,1.84,1.87,3.68,3.74,5.52,5.61.04.19.14.31.32.37,2.39,1.83,4.79,3.67,7.18,5.5.28.2.56.39.84.59,3.08,1.55,6.16,3.09,9.24,4.64.77.51,1.54,1.03,2.31,1.54.5.01,1,.02,1.5.03.24,1.07.49,2.14.73,3.21Z"/>
  <path class="cls-6" d="m459.58,11.7c-.02,7.95-.05,15.9-.07,23.85-.14,1.46-.27,2.92-.41,4.35-2.83.69-4.89.45-5.26-2.81,0-1.54,0-3.08,0-4.62.52-3.8-.17-7.3-2.72-10.25-5.85-6.77-12.62-12.2-21.46-14.63-2.96-.81-5.84-1.95-8.76-2.94-.01-.69-.03-1.38-.04-2.07,1.78-.03,3.56-.06,5.34-.09.28.21.56.41.84.62,3.33,1.09,6.66,2.18,9.98,3.27.27.21.53.42.8.63,3.16,1.94,6.25,4.01,9.49,5.78,1.89,1.03,4.04,1.6,6.53,2.54v-7.5c1.3-.5,2.6-1,3.9-1.5.61,1.78,1.22,3.57,1.84,5.35Z"/>
  <path class="cls-6" d="m127.06.04c1.07,4.14,2.14,8.29,3.22,12.43l.64.73c.81,3.34,1.62,6.69,2.43,10.03.45.78.91,1.55,1.36,2.33.77,2.77,1.54,5.55,2.3,8.32-1.01.11-2.02.22-3.03.33-1.44-1.88-3.15-3.62-4.27-5.68-5.26-9.7-13.76-15.48-23.46-19.9-.49-.55-.98-1.1-1.47-1.64.04-.26-.06-.43-.3-.53,0,0-.11.07-.11.07,3.05.47,6.33.37,9.1,1.51,6.4,2.64,9.5.89,9.75-6.1.02-.66.48-1.3.74-1.95l3.08.04Z"/>
  <path class="cls-1" d="m320.28,20.92c0,.26-.02.52-.03.78l.78,6.92c0,1.79,0,3.59,0,5.38-.39.52-.7,1.39-1.18,1.49-3.83.84-3.68-2.32-4.43-4.57-.22-.79-.43-1.59-.65-2.38,0-1.02.33-2.2-.07-3.04-1.35-2.89-2.96-5.66-4.46-8.47-1.05-.54-2.1-1.07-3.15-1.61-.82-.73-1.65-1.46-2.47-2.18-.17-.75-.33-1.5-.5-2.26,3.26-.64,6.56-1.12,9.77-1.96,4.55-1.19,5.48-.63,5.52,3.89,0,1.39.06,2.78.1,4.16.26,1.28.52,2.56.78,3.84Z"/>
  <path class="cls-6" d="m166.16,31.66c-.15.78-.3,1.57-.45,2.35-.58.56-1.15,1.12-1.73,1.67-.77,0-1.54,0-2.31.01-.3-.3-.61-.61-.91-.91.06-1.02.13-2.04.19-3.06.22-1.8.43-3.6.65-5.4.54-4.96,1.13-9.91,1.59-14.88.28-3.04,2-4.76,3.82-3.29,3.72,3.01,7.93,2.83,12.22,2.84.08.75.16,1.5.24,2.25-1.34.45-2.67.91-4.01,1.36-1.79,1.56-3.57,3.13-5.36,4.69-.55.53-1.09,1.05-1.64,1.58-.77,3.59-1.53,7.19-2.3,10.78Z"/>
  <path class="cls-1" d="m483.27,170.03c-1.53-1.59-3.09-3.15-4.59-4.77-.6-.65-1.38-1.39-1.49-2.17-.08-.62.69-1.4,1.17-2.04,1.07-1.44,2.11-2.93,3.34-4.22.85-.88,2.02-1.46,3.04-2.17h1.54c.77.54,1.92.92,2.24,1.66,1.11,2.56,2.49,4.55,5.59,4.72.3.02.56.94.83,1.45-.84,1.06-1.67,2.13-2.51,3.19-1.35,1.4-2.55,2.97-4.09,4.12-.95.71-2.38.77-3.6,1.12-.5-.3-.99-.59-1.49-.89Z"/>
  <path class="cls-5" d="m400.13,2.59c1.8-.59,3.59-1.18,5.39-1.77,3.33,0,6.67-.02,10-.03,1.29.29,2.57.58,3.86.87.53.22,1.05.44,1.58.66l-.09.26c.01.69.03,1.38.04,2.07-2.57-.17-5.13-.34-7.7-.51-1.28,0-2.56-.01-3.85-.02-2.06,0-4.13,0-6.19,0-.22-.25-.44-.5-.66-.75-.3.46-.59.92-.89,1.38-.5-.03-1-.07-1.5-.1,0-.69,0-1.38,0-2.08Z"/>
  <path d="m402.43,167.06c.54.01,1.09.03,1.63.04.22.22.44.44.66.65.53,0,1.05,0,1.58-.01.51-.02,1.03-.04,1.54-.05,1.02.06,2.05.13,3.07.19,0,.78.02,1.55.03,2.33-1.53,0-3.07.01-4.61.02-1.04.24-2.07.49-3.11.74-3.12-.29-5.71-1.64-7.83-3.93.07-.2.07-.41,0-.61,1.83-.02,3.66-.04,5.49-.06.52.23,1.04.47,1.56.7Z"/>
  <path class="cls-8" d="m67.83,160.81c3.48.39,6.96.78,10.44,1.17-.37,2.32-7.4,3.04-11.94,1.26,0-.22-.03-.44-.09-.66l.05-1.55c.51-.07,1.02-.15,1.53-.22Z"/>
  <path class="cls-5" d="m40.89,154.07c1.05-.54,2.11-1.07,3.16-1.61.74.29,1.47.59,2.21.88.52.17,1.05.34,1.57.51,1.55,1.07,3.1,2.13,4.65,3.2-.01.27-.02.53-.03.8-.49.32-.99.64-1.48.96-3.36-1.58-6.72-3.16-10.08-4.74Z"/>
  <path class="cls-3" d="m435.58,165.6c-1.06.73-2.11,1.46-3.17,2.19-.76.07-1.52.14-2.28.21-1.27.19-2.55.38-3.82.57-.77-.26-1.54-.51-2.31-.77,2.29-1.24,4.59-2.48,6.88-3.72l3.14.73c.52.27,1.04.53,1.56.8Z"/>
  <path class="cls-10" d="m93.29,1.74c3.44.8,6.9,1.53,10.29,2.5.45.13.55,1.5.8,2.3,0,0,.11-.08.1-.07,0,0-.26-.12-.26-.12l-.24.14c-.26.03-.52.07-.78.1-3.12-1.07-6.24-2.14-9.37-3.21-.18-.54-.36-1.09-.54-1.63Z"/>
  <path class="cls-9" d="m52.44,157.85c.01-.27.02-.53.03-.8,2.58.77,5.17,1.53,7.75,2.3-.29.79-.58,1.58-.86,2.37-2.1-.77-4.2-1.53-6.29-2.3-.21-.52-.42-1.05-.63-1.57Z"/>
  <path class="cls-3" d="m59.36,161.72c.29-.79.58-1.58.86-2.37l5.31.79c.26.3.51.59.77.89-.02.52-.04,1.03-.05,1.55-.26.22-.52.44-.78.66-2.03-.51-4.07-1.01-6.1-1.52Z"/>
  <path class="cls-9" d="m92.35.76c-.93.12-1.86.23-3,.37.31.82.54,1.46.78,2.09-.76-.26-1.53-.52-2.29-.78-.3-.51-.6-1.01-.9-1.52,1.8-.06,3.61-.11,5.41-.17Z"/>
  <path class="cls-1" d="m346.16,51.71c.29-.77.58-1.54.87-2.32.92,1.69,1.85,3.39-.62,4.63-.08-.77-.17-1.54-.25-2.31Z"/>
  <path class="cls-8" d="m253.49,151.72c-.12.52-.25,1.03-.37,1.55-.45-.44-.89-.89-1.34-1.33.44-.33.87-.66,1.31-1,.13.26.27.52.4.78Z"/>
  <path class="cls-1" d="m353.17,77.2c-.49-.07-.98-.14-1.46-.2-.22-.48-.44-.96-.65-1.45.71.55,1.41,1.1,2.12,1.65Z"/>
  <path d="m698.04,160.99c-.07-.56-.13-1.13-.2-1.69.16-.06.31-.12.47-.18.31.62.61,1.24.92,1.86-.39,0-.79,0-1.18,0Z"/>
  <path class="cls-10" d="m613.4,163.25c.19.21.39.42.58.64-.19-.21-.39-.42-.58-.64Z"/>
  <path class="cls-1" d="m347.01,59.41c-.2-.52-.4-1.04-.6-1.56.2.52.4,1.04.6,1.56Z"/>
  <path class="cls-9" d="m227.74,154.8c-3.35-2.2-.21-2.77.96-3.84.92,1.59,1.38,3.07-.96,3.84Z"/>
  <path class="cls-7" d="m261.62,11.07c.55.28,1.1.55,1.65.83-.55.66-1.1,1.32-1.65,1.97,0-.93,0-1.87,0-2.8Z"/>
  <path class="cls-5" d="m150.12,78.88c1.38-.09,2.77-.18,5.37-.34-1.19,1.33-1.73,1.93-2.27,2.53-.77.27-1.53.53-2.3.8-.27-.1-.55-.19-.82-.29,0-.9.01-1.8.02-2.7Z"/>
  <path class="cls-10" d="m93.22,82.31c-.22-.2-.43-.4-.65-.61.22.2.43.4.65.61Z"/>
  <path d="m585.35,119.76c-.07.08-.14.15-.22.23-.06-.09-.18-.17-.17-.26,0-.08.13-.15.2-.23.06.09.12.17.18.26Z"/>
  <path class="cls-8" d="m395.38,166.41c.07.2.07.41,0,.61-2.51,2.57-5.06,1.9-7.63.11-.24-1.07-.49-2.14-.73-3.21.51-.22,1.14-.76,1.5-.61,2.32.95,4.58,2.05,6.86,3.1Z"/>
  <path d="m410.93,170.21c0-.78-.02-1.55-.03-2.33,2.05-.27,4.11-.54,6.16-.8.28.26.56.53.84.79-1.52,3.18-4.47,2.09-6.97,2.35Z"/>
</svg>